<?xml version="1.0" encoding="utf-8"?>
<!-- Generator: Adobe Illustrator 22.1.0, SVG Export Plug-In . SVG Version: 6.00 Build 0)  -->
<svg version="1.1" id="Layer_1" xmlns="http://www.w3.org/2000/svg" xmlns:xlink="http://www.w3.org/1999/xlink" x="0px" y="0px"
	 viewBox="0 0 100 100" style="enable-background:new 0 0 100 100;" xml:space="preserve">
<style type="text/css">
	.st0{fill:#FFFFFF;}
</style>
<g>
	<path class="st0" d="M75.1,42.6c-1.2,0-2.2,1-2.2,2.2v21.7H27.1V44.8c0-1.2-1-2.2-2.2-2.2c-1.2,0-2.2,1-2.2,2.2v22.6
		c0,2,1.7,3.6,3.7,3.6h47.3c2,0,3.7-1.6,3.7-3.6V44.8C77.3,43.6,76.3,42.6,75.1,42.6z"/>
	<path class="st0" d="M77.6,36.2H67.4c0.1-0.2,0.1-0.5,0.1-0.7c0-1.5-1.2-2.8-2.8-2.8h-3.9c-1.5,0-2.8,1.2-2.8,2.8
		c0,0.3,0,0.5,0.1,0.7H41.9c0.1-0.2,0.1-0.5,0.1-0.7c0-1.5-1.2-2.8-2.8-2.8h-3.9c-1.5,0-2.8,1.2-2.8,2.8c0,0.3,0,0.5,0.1,0.7H22.4
		c-1.2,0-2.2,1-2.2,2.2c0,1.2,1,2.2,2.2,2.2h55.1c1.2,0,2.2-1,2.2-2.2C79.8,37.2,78.8,36.2,77.6,36.2z"/>
	<path class="st0" d="M37.2,46.4c-1.5,0-2.8,1.2-2.8,2.8v0.2h-0.2c-1.5,0-2.8,1.2-2.8,2.8c0,1.5,1.2,2.8,2.8,2.8h0.2v0.2
		c0,1.5,1.2,2.8,2.8,2.8c1.5,0,2.8-1.2,2.8-2.8v-0.2h0.2c1.5,0,2.8-1.2,2.8-2.8c0-1.5-1.2-2.8-2.8-2.8H40v-0.2
		C40,47.7,38.8,46.4,37.2,46.4z"/>
	<path class="st0" d="M65.7,54.9c1.5,0,2.8-1.2,2.8-2.8c0-1.5-1.2-2.8-2.8-2.8h-5.9c-1.5,0-2.8,1.2-2.8,2.8c0,1.5,1.2,2.8,2.8,2.8
		H65.7z"/>
</g>
</svg>
