<?xml version="1.0" encoding="utf-8"?>
<!-- Generator: Adobe Illustrator 22.1.0, SVG Export Plug-In . SVG Version: 6.00 Build 0)  -->
<svg version="1.1" id="Layer_1" xmlns="http://www.w3.org/2000/svg" xmlns:xlink="http://www.w3.org/1999/xlink" x="0px" y="0px"
	 viewBox="0 0 100 100" style="enable-background:new 0 0 100 100;" xml:space="preserve">
<style type="text/css">
	.st0{fill:#FFFFFF;}
</style>
<path class="st0" d="M64,19.5H36c-2.4,0-4.4,2-4.4,4.4v52.4c0,2.4,2,4.4,4.4,4.4H64c2.4,0,4.4-2,4.4-4.4V23.8
	C68.3,21.4,66.4,19.5,64,19.5z M49.7,78c-1.6,0-2.9-1.3-2.9-2.9c0-1.6,1.3-2.9,2.9-2.9c1.6,0,2.9,1.3,2.9,2.9
	C52.6,76.7,51.3,78,49.7,78z M63.9,70.1H36.1V23.9h27.7V70.1z"/>
</svg>
