<?xml version="1.0" encoding="utf-8"?>
<!-- Generator: Adobe Illustrator 22.1.0, SVG Export Plug-In . SVG Version: 6.00 Build 0)  -->
<svg version="1.1" id="Layer_1" xmlns="http://www.w3.org/2000/svg" xmlns:xlink="http://www.w3.org/1999/xlink" x="0px" y="0px"
	 viewBox="0 0 100 100" style="enable-background:new 0 0 100 100;" xml:space="preserve">
<style type="text/css">
	.st0{fill:#FFFFFF;}
</style>
<g>
	<path class="st0" d="M58.9,31.4h-2c0-0.1,0-0.3,0-0.4v-1.2c0-2.4-2-4.4-4.4-4.4h-5.2c-2.4,0-4.4,2-4.4,4.4V31c0,0.1,0,0.3,0,0.4h-2
		c-2.4,0-4.4,2-4.4,4.4v34.5c0,2.4,2,4.4,4.4,4.4h17.8c2.4,0,4.4-2,4.4-4.4V35.7C63.2,33.3,61.3,31.4,58.9,31.4z M58.8,70.2H41.2
		V35.8h17.6V70.2z"/>
	<path class="st0" d="M44.7,54.3H49c0.6,0,1,0.6,0.7,1.1L46,64.1l10-12.7c0.4-0.5,0-1.3-0.6-1.3h-3.1c-0.6,0-1-0.6-0.7-1.1l2.7-6
		c0.2-0.5-0.1-1.1-0.7-1.1l-4.1,0c-0.3,0-0.6,0.2-0.7,0.5l-4.7,10.9C43.7,53.8,44.1,54.3,44.7,54.3z"/>
	<path class="st0" d="M34.6,38.8c0-1.2-1-2.2-2.2-2.2v-0.3c0-2.1-1.7-3.8-3.8-3.8h-3.3c-2.1,0-3.8,1.7-3.8,3.8v0.3
		c-2.4,0-4.3,2-4.3,4.3v22.2c0,2.4,2,4.4,4.4,4.4h10.8c1.2,0,2.2-1,2.2-2.2s-1-2.2-2.2-2.2H21.7V41h10.7C33.6,41,34.6,40,34.6,38.8z
		"/>
	<path class="st0" d="M24.3,59.7l6.9-8.7c0.3-0.4,0-0.9-0.4-0.9h-2.1c-0.4,0-0.7-0.4-0.5-0.8l1.9-4.1c0.2-0.4-0.1-0.8-0.5-0.8
		l-2.8,0c-0.2,0-0.4,0.1-0.5,0.3l-3.3,7.5C22.7,52.6,23,53,23.4,53h3c0.4,0,0.7,0.4,0.5,0.8L24.3,59.7z"/>
	<path class="st0" d="M78.4,36.6v-0.3c0-2.1-1.7-3.8-3.8-3.8h-3.3c-2.1,0-3.8,1.7-3.8,3.8v0.3c-1.2,0-2.2,1-2.2,2.2
		c0,1.2,1,2.2,2.2,2.2h10.7v22H67.6c-1.2,0-2.2,1-2.2,2.2s1,2.2,2.2,2.2h10.8c2.4,0,4.4-2,4.4-4.4V40.9
		C82.7,38.6,80.8,36.6,78.4,36.6z"/>
	<path class="st0" d="M75.9,45.2c0.2-0.4-0.1-0.8-0.5-0.8l-2.8,0c-0.2,0-0.4,0.1-0.5,0.3l-3.3,7.5c-0.2,0.4,0.1,0.8,0.5,0.8h3
		c0.4,0,0.7,0.4,0.5,0.8l-2.5,6l6.9-8.7c0.3-0.4,0-0.9-0.4-0.9h-2.1c-0.4,0-0.7-0.4-0.5-0.8L75.9,45.2z"/>
</g>
</svg>
