<?xml version="1.0" encoding="utf-8"?>
<!-- Generator: Adobe Illustrator 22.1.0, SVG Export Plug-In . SVG Version: 6.00 Build 0)  -->
<svg version="1.1" id="Layer_1" xmlns="http://www.w3.org/2000/svg" xmlns:xlink="http://www.w3.org/1999/xlink" x="0px" y="0px"
	 viewBox="0 0 100 100" style="enable-background:new 0 0 100 100;" xml:space="preserve">
<style type="text/css">
	.st0{fill:#FFFFFF;}
</style>
<path class="st0" d="M79.5,43.1l-9.8-8.6c-0.9-0.9-2.2-1.5-3.5-1.5H44.9c-1.1,0-2.1,0.3-2.9,0.9c-0.1,0.1-1.5,1-3.3,2.2
	c-5.3,3.5-7.8,5.2-8.1,5.3c-0.2,0.1-0.3,0.2-0.5,0.3c-0.3,0.1-4.6,1.4-6.9,2c-1.1,0.3-1.9,0.6-2,0.6l-0.1,0
	c-4.4,1.3-5.3,4.1-5.3,6.1v2.7c0,3.6,2.9,6.5,6.5,6.5l2.9,0c1,4.1,4.7,7.2,9.2,7.2c4.4,0,8.2-3.1,9.2-7.2h12.3
	c1,4.1,4.7,7.2,9.2,7.2s8.2-3.1,9.2-7.2l1.2,0c3.6,0,6.5-2.9,6.5-6.5v-2.7C82,46.9,81.3,45,79.5,43.1z M39.4,55.3v2.2
	c0,2.7-2.2,5-5,5c-2.7,0-5-2.2-5-5v-2.2l-7.1,0c-1.1,0-2.1-0.9-2.1-2.1v-2.7c0-0.7,0.4-1.3,2.1-1.9l0.1,0c0.1,0,0.9-0.3,2-0.6
	c4.3-1.3,6.7-2,7-2.1c0.7-0.2,1.2-0.5,1.7-0.9c0.3-0.2,5.1-3.4,8-5.3c3.4-2.2,3.4-2.2,3.4-2.3c0.1-0.1,0.2-0.1,0.3-0.1h3.9l-4,9.1
	c-0.2,0.5,0.2,1.1,0.7,1.1h4.3c0.6,0,1,0.6,0.7,1.1l-2.8,6.4H39.4z M77.5,53.2c0,1.1-0.9,2.1-2.1,2.1l-5.4,0v2.2c0,2.7-2.2,5-5,5
	c-2.7,0-5-2.2-5-5v-2.2H48.7L57,44.8c0.4-0.5,0-1.3-0.6-1.3h-3.1c-0.6,0-1-0.6-0.7-1.1l2.2-4.9h11.5c0.1,0,0.3,0.1,0.4,0.2l9.8,8.6
	c0.7,0.7,1.1,1.4,1.1,4.2V53.2z"/>
</svg>
